<svg xmlns="http://www.w3.org/2000/svg" width="2000" height="2000" id="data-analysis-case-study">
  <defs>
    <clipPath id="a">
      <path fill="none" d="M436.672 1474.326h199.792s-13.74 26.278-26.805 51.272a82.49 82.49 0 0 1-73.089 44.263 82.492 82.492 0 0 1-73.089-44.263c-13.069-24.998-26.809-51.272-26.809-51.272Z"></path>
    </clipPath>
    <clipPath id="b">
      <path fill="none" d="M1621.239 1473.828c12.5-25.593 67.128 52.5 46.248 71.907-28.8 26.775-192.664 92.655-219.069 88.728s31.858-85.555 60.658-112.33 77.285 23.081 112.163-48.305Z"></path>
    </clipPath>
    <clipPath id="c">
      <path fill="none" d="M1127.631 1353.687c24.639-14.293 26.517 80.991-1.631 85.48-38.832 6.2-211.623-30.335-231.368-48.3s74.105-53.32 112.937-59.52 51.338 62.209 120.062 22.34Z"></path>
    </clipPath>
    <clipPath id="d">
      <path fill="none" d="M1393.209 1061.752c-110.6 52.95-213.343-14.715-255.251 59.551-41.192 73 104.683 229.64-16.141 252.775-57.734 11.051-155.513-38.574-166.182-99.136s29.209-209.749 102.131-264.23 238.968-79.225 335.439-62.637c100.895 17.343 106.543 62.679.004 113.677Z"></path>
    </clipPath>
    <clipPath id="e">
      <path fill="none" d="M1521.289 1000.35c-71.82 188.922 24.813 276.008 41.235 298.429 58.849 80.316 156.927 114.518 95.722 185.489-38.389 44.511-142.265 60.3-192.486 19.829-50.5-40.692-99.191-172.4-110.515-263.973s16.448-191.138 42.566-285.467c19.989-72.188 165.449-64.709 123.478 45.693Z"></path>
    </clipPath>
    <clipPath id="f">
      <path fill="none" d="M1488.163 729.246c-46.761-10.984-91.18 110.888-138.1 112.8s-122.437-79.423-143.413-101.337c-8.858-9.269-22.593-18.206-29.02-20.174-16.538-5.074-43.99-6.655-45.891 2.25-1.258 5.9 27.263 1.467 25.725 10.267-3.906 22.357 7.418 28.051 28.873 29.458 22.257 47.264 118.546 154.751 172.841 161.591s139.32-87.914 152.891-120.543c14.762-35.458 1.431-68.367-23.906-74.312Z"></path>
    </clipPath>
    <clipPath id="g">
      <path fill="none" d="M1542.226 955.311c6.882 39.451-151.079 62.565-179.245 25.127-43.861-58.277 85.33-88.92 92.706-225.154 2.637-48.67 135.311-44.786 102.942 10.414-18.18 31.014-36.174 76.374-16.403 189.613Z"></path>
    </clipPath>
    <clipPath id="h">
      <path fill="none" d="M1513.628 1113.773c24.945 21.347 59.476 21.926 77.132 1.293l.011-.012c17.653-20.629 11.748-54.659-13.2-76.006l-469.25-401.563a98.215 98.215 0 0 0-32.48-18.446c-21.075-7.106-56.4-19.022-82.583-27.851a13.28 13.28 0 0 0-15.7 19.3c14.152 24.146 33.231 56.709 44.02 75.116a98.173 98.173 0 0 0 20.884 24.97Z"></path>
    </clipPath>
    <clipPath id="i">
      <path fill="none" d="M1528.7 737.1c-38.714 28.434 25.14 141.344-3.865 178.27s-142.386 31.13-170.183 43.28c-4.411 1.925-18.231-23.43-24.424-26.059-9.053-3.856-8.808 8.6-2.838 20.38 2.724 5.383-23.636-23.125-25.09-17.551-3.491 13.364 15.693 47.417 55.745 52.834 78.771 10.641 194.667 10.309 235.12-26.546s23.588-163.042 7.583-194.548c-17.386-34.246-51.071-45.477-72.048-30.06Z"></path>
    </clipPath>
  </defs>
  <path fill="#f6f6f6" fill-rule="evenodd" d="M1590.061 1526.413c336.784-3.11 401.39 173.466-217.589 135.869-107.407-6.521-277.777-58.565-418.349-68.693-151.826-10.943-447.459 4.881-492.615 3.054-178.2-7.242-284.994-74.324 228.083-70.23 188.38 1.499 731.345 1.555 900.47 0Z"></path>
  <ellipse cx="1552.592" cy="1626.047" fill-opacity=".2" rx="105.522" ry="15.326"></ellipse>
  <ellipse cx="994.57" cy="1546.017" fill-opacity=".2" rx="81.411" ry="11.518"></ellipse>
  <path fill="#f6f6f6" fill-rule="evenodd" d="M1765.561 858.728c103.449 311.411-143.342 765.591-404.829 531.6-136.884-122.482-384.532-277.607-560.549-174.828-696.371 406.652-743.751-290.833-529.4-251.319C850.921 1071.121 810.4 799.9 948.567 591.06c184.265-278.512 676.484-155.34 816.994 267.668Z"></path>
  <ellipse cx="489.261" cy="1569.861" fill-opacity=".2" rx="79.274" ry="12.331"></ellipse>
  <path fill="#319991" d="M570.611 1539.028a94.638 94.638 0 0 1-7.983-10.834c-7.88-11.942-12.654-24.341-16.32-39.663a198.652 198.652 0 0 1-3.788-85.125c.394 2.394.489 4.7.783 7.226.091 3.523 1.887 5.766 3.584 8.142 1.3 1.931 1.689 4.812 3.286 7.077 2.7 3.242 7.5 2.722 10.115-.972a10.046 10.046 0 0 0 11.021-2.653c2.511-2.83 3.923-6.638 5.034-10.535.2-1 .406-1.993.508-2.857 2.1 1.6 4.7 2.538 7.108.328 4.415-3.645 5.235-10.8 4.348-16.431a29.771 29.771 0 0 0-1.786-6.631l.2-.021c4.41-1.695 3.527-8.789 1.733-12.25a34.408 34.408 0 0 0-5.185-8.456 3.789 3.789 0 0 0 .307-2.592c-.487-5.431-4.783-8.987-8.685-10.393-4.8-1.918-11.31-1.58-14.508-4.159a10.722 10.722 0 0 1-2.792-4.572c-.2-.222-.2-.466-.3-.821a28.564 28.564 0 0 0 1.109-3.166c6.653-17.046 13.3-32.142 22.748-46.322a35.82 35.82 0 0 1 .388 5.076c-.112 4.52-.726 9.7 2.27 12.792 3.494 4.13 9.6 3.836 12.322-2.185 1.61-3.342 1.721-7.375 3.532-10.738a20.447 20.447 0 0 1 1.809-2.877c1.093 3.416-.022 8.776-1.133 12.673-2.831 10.541-10.96 17.633-14.192 28.461-.913 4.607 1.886 6.5 4.691 5.951-.51 3.588-1.119 7.066-.627 10.546 1.679 8.957 8.377 13.229 15.593 10.743.192 3.147.384 6.294 1.479 8.979 2.187 6.1 7.983 10.59 13.8 8.256a14.467 14.467 0 0 0 5.62-4.75c3.286 7.321 4.258 18.669 12.666 19.71 2.6.694 5.408-.341 7.517-2.64a20.7 20.7 0 0 0 4.6 1.7c3.1.274 6.111-1.27 8.721-3.5 8.731-7.889 8.066-21.829 4.787-31.832 0-.243-.1-.354-.1-.6.3-.154.6-.065.9-.219 10.828-5.313 3.354-19.492-2.441-24.471l-.7-.777c6.424-5.812 1.34-14.645-5.057-19.314-1.2-.845-2.2-1.956-3.4-2.8a10.212 10.212 0 0 0 3.018-5.444c1.114-5.116-2.38-9-5.68-10.717a39.453 39.453 0 0 0-6.4-2.233 4.735 4.735 0 0 0-.287-5.208c-2.395-3.153-6.5-3.806-10.1-3.416-1.3.263-2.5.636-3.907 1.031-1.2-1.82-5.1-1.763-7.206-1.414-5.609.606-9.92 2.656-14.32.695-3.9-1.894-5.692-6.086-7.583-10.634a45.33 45.33 0 0 1-1.688-5.788c9.141-11.345 18.58-21.869 28.42-32.192a37.529 37.529 0 0 1 1.075 10.24c-.119 7.2-2.357 21.09 6.356 20.271a8.336 8.336 0 0 0 3.71-1.985c1.092 3.9 2.483 7.895 4.979 10.671 4.092 5.285 14.1 6.4 16.828-2.306a18.844 18.844 0 0 0-2.664-15.186c-2.294-3.529-7.79-7.931-5.481-10.5.4-.53 1.4-.395 3.105-.213a15.8 15.8 0 0 0 2.6.45 47.819 47.819 0 0 0 6.971 15.086c6.186 8.591 13.477 15.723 20.467 23.253 4.094 4.31 9.884 11.238 16.006 5.825a7.464 7.464 0 0 0 2.114-4.249c3.4 2.313 6.9 4.737 11 4.659 5.907.214 8.13-7.58 7.745-13.631a3.163 3.163 0 0 1 0-.975c3.9 1.894 8.1 2.658 11.421-2.209 5.734-10.245 3.076-28.356-5.421-33.652-.6-.423-1.3-.712-1.9-1.135a6.346 6.346 0 0 0 1.108-2.679c1.115-5.359-2.177-10-5.776-12.047-2.3-1.092-4.8-.943-7.307-1.038a3.838 3.838 0 0 0-1.2-2.308c-2.6-2.4-6-2.763-9.2-3.391 4.707-.631 8.718-2.526 11.33-6.22a14.061 14.061 0 0 0 1.814-4.583c4.707-.387 9.616-1.283 13.63-4.641 4.213-2.892 6.732-9.135 4.741-13.793a17.07 17.07 0 0 0 6.719-4.016c7.43-7.626 5.953-17.58-2.044-22.808a18.842 18.842 0 0 0-5-2.384c6.821-4.636 14.545-9.979 16.073-20.257 1.114-4.872-.275-9.84-3.372-12.551-7.1-5.2-16.313-3.233-24.632-.262a15.758 15.758 0 0 0 1.719-6.4c.418-7.112-6.278-11.872-11.688-10.8a19.735 19.735 0 0 0-8.721 3.744l-.1.133c.02-7.8-5.79-6.928-11.711-1.78-5.719 4.395-10.241 10.854-13.863 17.825-1.695-3.107-4.9-2.516-7.612.579l-.5.664c1.513-4.429 1.424-8.683-3.378-10.6a5.313 5.313 0 0 0-1.9-.4c2.417-5.379 4.635-11.223 3.448-16.943-1.388-5.7-7.4-5.537-11.209-2.445a.575.575 0 0 1-.4.288c.309-3.324 1.019-6.69-.075-9.618-2.387-6.565-9.692-8.335-14.711-3.406a12.045 12.045 0 0 0-1.506 1.747c-7.9-2.679-14.441 8.628-16.166 17.465-1.9-2.11-4.1-3.334-6.805-1.7-5.917 3.685-8.041 12.322-8.561 19.567a29.2 29.2 0 0 0-.013 5.119 6.464 6.464 0 0 0-4.317 4.487c-3.036 12.757 5.144 24.544 9.026 33.75a61.829 61.829 0 0 1 2.683 8.118 13.322 13.322 0 0 0-7.9-2.68 6.314 6.314 0 0 0-6.121 5.17 8.872 8.872 0 0 0 1.088 5.122 26.164 26.164 0 0 0 3.389 6.213c1.8 2.243 3.493 4.618 5.49 6.839a4.5 4.5 0 0 0-1.906 1.059c-3.113 3.627.078 8.886 1.772 11.993a20.83 20.83 0 0 0 3.7 4.109c-.411 3.943 5.98 10.807 7.878 12.43a29.645 29.645 0 0 0 3.2 2.578c-9.638 9.815-18.876 20.073-27.815 30.665a15.7 15.7 0 0 1-1.707 2.012 16.856 16.856 0 0 0-2.6-1.181 14.8 14.8 0 0 1-3.6-2.048c-4.4-2.936-7.688-8.8-4.768-15.081 1.209-2.811 4.723-6.48 6.234-10.177a7.514 7.514 0 0 0-.785-6.251c1.914-4.228 6.529-7.895 7.943-12.678a5.094 5.094 0 0 0-1.689-5.056c.7-1.417 1.509-2.966 2.214-4.382 3.218-5.709 4.445-15.346-3.067-14.412-.4.043-.7.2-1.1.241 1.327-9.769 6.268-23.34-4.539-26.071a7.9 7.9 0 0 0-2.4.016c1.414-4.783 3.229-9.853 2.04-14.842-1.281-8.025-9.693-7.36-14.709-3.65a16.957 16.957 0 0 0-3.011 2.763c-1.184-7.183-3.87-13.838-10.379-13.5-12.22 1.565-17.865 16.308-19.2 29.49-.1.62-.1 1.108-.2 1.728a2.364 2.364 0 0 0-1-.135c-3.5-.475-7.116 2.6-9.428 5.892-5.228 8.363-3.454 19.381-.771 27.742.1.355.3.577.4.932-3.009 1.787-4.322 6.437-3.731 10.029a15.487 15.487 0 0 0 2.988 6.5 12.3 12.3 0 0 0 4.3 3.557 5.769 5.769 0 0 0 1.79 4.924c2.7 3 7.1 4.959 9.493 7.381a44.37 44.37 0 0 1 3.691 5.571c-4.414 3.4-7.433 9.089-5.246 15.189 3.476 11.2 13.671 18.383 23.788 17.168 5.008-.542 10.025-4.739 13.831-5.394 1.6-.174 3.2.872 4.3 2.581.6.91.9 1.731 1.3 2.419-9.142 11.588-17.984 23.754-24.728 37.52-2.415 4.647-4.63 9.517-6.846 14.386-4.813 2.957-9.218 2.458-12.814-1.052-3.594-4.242-2.274-11.329-2.958-17.957a18.1 18.1 0 0 0-3.283-8.3c-1.9-1.622-4.7-2.538-7.106-1.3a9.992 9.992 0 0 0-3.19-5.26c-3.2-2.579-7.606-1.859-9.418 1.992-2.2-2.443-4.7-4.244-7.9-4.385-5.005-.678-9.02 3.168-9.434 8.574a11.536 11.536 0 0 0-7.014 1.976c-6.52 4.482-9.754 16.041-4.964 22.59l.2.223c-4.115 3.734-6.235 10.665.37 11.9a16.181 16.181 0 0 0 7.913-.977 18.764 18.764 0 0 0-1.422 8.2 6.317 6.317 0 0 0 4.59 6.083c1.9.4 4.006-.189 5.91-.76a7.906 7.906 0 0 0 1.2-.618c-.02 7.8 6.582 10.255 14.2 5.532a13.55 13.55 0 0 0 1.907-1.546 10.968 10.968 0 0 0 8.614-1.419c1.906-1.3 3.214-3.759 4.321-5.95 2.517-5.267 2.235-12.426 6.739-11.816a11.783 11.783 0 0 1 5.8 1.566c1.3.469 2.5 2.045 3.9 1.406-.806 2.037-1.713 4.206-2.419 6.354a1.516 1.516 0 0 0-.6.552c-1.72 6.644-7.833 8.888-12.452 14.018a29.767 29.767 0 0 0-6.236 10.665 10.189 10.189 0 0 0-.5 1.882c-3.414 3.781-7.133 9.178-5.142 13.593a7.755 7.755 0 0 0 1.7 2.132 27.72 27.72 0 0 0-.726 9.948c.19 4.122.779 8.445 2.575 10.931-4.509 1.34-7.985-9.615-15.395-9.546a6.377 6.377 0 0 0-5.311 1.671c-6.7-1.834-11.845 11.271-6.556 18.376a8.445 8.445 0 0 0 4.5 2.56 5.365 5.365 0 0 0 .294 2.77c1.9 2.6 5.2 1.875 7.909.486 1.595 2.752 5.3 2.96 7.906 1.46 2.408-1.722 3.918-4.931 5.827-7.453.7-1.172 2.51-2.586 2.81-2.5l2.1-.593a202.857 202.857 0 0 0-1.923 34.804c.561 15.535 3.326 30.588 6.894 45.068 3.565 15.454 9.536 29.918 17.916 41.927 2.395 3.4 4.99 6.772 7.585 9.9a1.847 1.847 0 0 0 2.2.737c3.805.323 3.814-1.627 2.016-3.139Zm76.468-340.533a30.973 30.973 0 0 1 6.152-17.357 12.017 12.017 0 0 1 1.607-1.88c-.718 6.779-1.036 13.515-1.453 20.14-.207 2.7-.315 5.517-.522 8.22-.8.817-1.706 1.524-2.408 2.209a1.169 1.169 0 0 1-.4-.688 23.951 23.951 0 0 1-2.976-10.644Zm9.25 24.466a17.608 17.608 0 0 1-4.993-5.309 19.85 19.85 0 0 1-1.2-2.308c.3.09.8-.086 1.1 0 1.7-.306 2.3-.371 4.107-.565a56.143 56.143 0 0 1 10.715-.306c5.606.369 14.211 2.851 22.819 4.358l-1.8.194c-6.613 1.446-14.031 4.928-19.74 5.423-4.404-.008-7.609.339-11.008-1.487Z"></path>
  <path fill="#43c3b9" d="M603.614 1460.826a114.82 114.82 0 0 1-16.316-.556c-17.292-1.489-32.683-6.276-50.021-14.317a240.969 240.969 0 0 1-83.849-60.45c2.575 1.427 4.839 3.071 7.465 4.693 3.421 2.565 6.907 2.543 10.444 2.716 2.813.22 5.851 2.014 9.207 2.2 5.113-.125 8.236-5.091 6.687-10.356 4.013-2.241 6.464-6.965 5.768-12.484-.8-4.518-3.365-8.727-6.237-12.717-.8-.943-1.591-1.886-2.336-2.633 3.1-.793 5.951-2.562 5.661-6.517-.146-6.944-6.338-13.108-12.363-16.5a36.1 36.1 0 0 0-7.653-3.29l.13-.207c1.706-5.472-5.708-9.969-10.352-10.867a41.741 41.741 0 0 0-11.947-1.429 4.6 4.6 0 0 0-2.236-2.243c-5.533-3.623-12.15-2.211-16.424.444-5.438 3.125-10.014 9.573-14.874 10.676a13.018 13.018 0 0 1-6.451-.784 2.223 2.223 0 0 1-1.006-.334 34.779 34.779 0 0 0-2.177-3.438c-11.215-19.156-20.577-36.841-26.961-56.5a43.406 43.406 0 0 1 5.122 3.45c4.217 3.508 8.687 7.993 13.88 7.465 6.559-.216 10.876-6.251 7.193-13.368-1.968-4.047-5.722-7.187-7.56-11.441a24.7 24.7 0 0 1-1.375-3.886c4.072 1.53 8.333 6.624 11.2 10.614 7.9 10.625 8.532 23.7 16.4 34.92 3.7 4.335 7.6 3.094 9.192.014 3.031 3.185 5.881 6.382 9.563 8.533 9.787 5.142 18.891 1.983 21.955-6.753 3.14 2.185 6.279 4.37 9.657 5.348 7.449 2.509 16.084.373 18.238-6.915a17.552 17.552 0 0 0-.292-8.922c9.439 2.383 20.969 10 28.286 2.779 2.618-1.953 3.745-5.4 3.144-9.138a25.166 25.166 0 0 0 5.076-3.1c2.6-2.747 3.391-6.77 3.231-10.932-.937-14.244-14.7-24.1-26.686-28.508-.232-.184-.413-.172-.644-.356.079-.4.39-.621.47-1.023 3.092-14.3-16.024-17.859-25.121-16.091l-1.266.08c-.7-10.485-12.927-12.293-22.183-9.721-1.707.5-3.515.62-5.222 1.125a12.381 12.381 0 0 0-2.909-6.967c-4.029-4.911-10.357-4.51-14.472-2.66a47.871 47.871 0 0 0-6.942 4.412 5.747 5.747 0 0 0-5.172-3.646c-4.8-.093-8.511 3.32-10.854 7.044-.73 1.437-1.279 2.863-1.959 4.495-2.632-.231-5.517 3.528-6.767 5.792-3.644 5.793-4.937 11.438-10.115 14.149-4.737 2.287-10.074.837-15.824-.786a54.939 54.939 0 0 1-6.777-2.75c-3.917-17.234-6.828-34.135-9.248-51.265a45.5 45.5 0 0 1 10.553 6.682c6.764 5.532 18.3 18.113 24.071 9.2a10.094 10.094 0 0 0 .9-5.024c4.535 1.9 9.381 3.578 13.9 3.292 8.108.083 16.7-8.606 10.468-17.747a22.857 22.857 0 0 0-16.455-8.892c-5.084-.473-13.408 1.445-14.11-2.683-.2-.782.679-1.632 2.132-3.115a19.022 19.022 0 0 0 2.386-2.137 58.043 58.043 0 0 0 19.6 4.719c12.83.578 25.1-.993 37.527-1.978 7.182-.653 18.131-.949 17.586-10.847a9.039 9.039 0 0 0-2.453-5.209c4.759-1.493 9.7-3 12.713-6.963 4.649-5.46-1.095-13.44-7.142-17.626a3.821 3.821 0 0 1-.926-.736c4.737-2.287 8.627-5.711 6.492-12.53-5.435-13.165-24.668-24.264-36.1-20.163-.853.252-1.656.7-2.509.953a7.711 7.711 0 0 0-1.715-3.07c-4.261-5.094-11.153-5.453-15.81-3.568-2.77 1.367-4.512 3.861-6.486 6.171a4.651 4.651 0 0 0-3.1-.6c-4.238.665-7.144 3.63-10.152 6.2 2.942-4.954 4.156-10.2 2.607-15.462a17.1 17.1 0 0 0-3-5.175c3.174-4.77 6.014-10.115 5.839-16.461.419-6.185-3.626-13.279-9.557-14.89a20.689 20.689 0 0 0 1.235-9.416c-1.666-12.807-12.249-18.892-23.241-15.216a22.845 22.845 0 0 0-6.031 2.964c.721-9.979 1.449-21.348-7.181-30.537-3.8-4.726-9.57-7.142-14.48-6.235-10.291 2.837-15.351 13.09-18.784 23.24a19.128 19.128 0 0 0-4.8-6.451c-6.452-5.75-16.02-2.959-19.07 3a23.953 23.953 0 0 0-3 11.117l.051.2c-7.407-5.888-10.95.3-10.506 9.8-.121 8.749 2.622 17.913 6.529 26.605-4.231-.726-6.081 2.769-5.176 7.678l.253.977c-3.075-4.772-7.191-7.888-12.628-4.763a6.451 6.451 0 0 0-1.815 1.506c-3.3-6.347-7.192-12.855-13.528-16.03-6.467-2.968-10.833 2.871-10.76 8.826a.691.691 0 0 1-.029.6c-2.929-2.794-5.6-6-9.208-7.164-8.043-2.67-15.223 2.95-14.31 11.434a14.615 14.615 0 0 0 .529 2.748c-8.5 5.5-2.657 20.233 4.454 28.524-3.435.218-6.255 1.389-6.739 5.194-.945 8.4 5.674 16.925 12.177 22.871a35.316 35.316 0 0 0 4.861 3.864 7.842 7.842 0 0 0 1.021 7.484c9.854 12.488 27.225 13.574 38.906 16.808a75.089 75.089 0 0 1 9.743 3.555 16.168 16.168 0 0 0-8.5 5.5 7.658 7.658 0 0 0 .314 9.715 10.751 10.751 0 0 0 5.692 2.818 31.68 31.68 0 0 0 8.462 1.451c3.486-.022 7.022.152 10.638-.077a5.454 5.454 0 0 0-.426 2.61c1.108 5.691 8.514 6.613 12.745 7.338a25.285 25.285 0 0 0 6.69-.423c3.443 3.358 14.783 2.441 17.755 1.856a35.925 35.925 0 0 0 4.86-1.1c2.087 16.555 4.9 33.065 8.249 49.54a19.138 19.138 0 0 1 .63 3.139 20.423 20.423 0 0 0-3.081 1.585 17.936 17.936 0 0 1-4.657 1.885c-6.1 1.975-14.153.7-17.937-6.812-1.766-3.265-2.613-9.37-4.994-13.59a9.122 9.122 0 0 0-6.538-3.957c-2.583-5-2.6-12.152-6.087-17.1a6.177 6.177 0 0 0-6.082-2.2c-.818-1.736-1.686-3.668-2.5-5.4-3.01-7.359-11.257-15.777-16.021-7.926-.26.414-.34.816-.6 1.23-8.3-8.613-17.493-23.527-28.224-15.3a9.67 9.67 0 0 0-1.793 2.3c-3.487-4.944-6.945-10.487-12.587-13.109-8.6-4.82-14.3 3.686-14.541 11.25a20.575 20.575 0 0 0 .363 4.944c-7.725-4.279-16.079-6.73-20.656-.282-7.706 12.8 2.076 29.27 13.613 40.46.514.563.977.931 1.491 1.495a2.856 2.856 0 0 0-.882.85c-3.088 2.977-2.884 8.725-1.487 13.405 4.023 11.267 15.842 17.87 25.816 21.609.413.173.774.15 1.187.322-.564 4.208 2.873 8.957 6.735 11.1a18.793 18.793 0 0 0 8.433 2.049 14.926 14.926 0 0 0 6.618-1.412c1.591 1.886 4.043 2.128 6.032 2 4.881-.309 10.059-3.02 14.167-3.479a53.87 53.87 0 0 1 8.078.681c-.085 6.76 3.055 13.911 10.5 16.42 13.272 5.119 27.779.824 34.235-9.716 3.253-5.173 3.035-13.105 5.276-17.22 1.041-1.656 3.239-2.391 5.691-2.148 1.316.115 2.322.449 3.276.587 4.148 17.418 9.07 34.986 17.095 51.762 2.605 5.8 5.571 11.567 8.538 17.339-.809 6.805-4.6 10.621-10.644 11.4-6.74.228-12.491-6.361-19.312-10.7a21.963 21.963 0 0 0-10.364-3.119c-2.973.586-5.952 2.562-6.588 5.781a12.124 12.124 0 0 0-7.406-.922c-4.859 1.1-7.491 5.838-5.19 10.46-3.978.252-7.572 1.274-10.117 4.217-4.411 4.252-3.773 10.966 1.06 15.428a14 14 0 0 0-3.4 8.162c-.641 9.576 7.924 21.351 17.76 21.722l.362-.023c.457 6.725 5.456 13.958 11.6 8.6a19.634 19.634 0 0 0 5.025-8.264 22.778 22.778 0 0 0 6.727 7.521 7.665 7.665 0 0 0 9.243.209c1.815-1.5 2.834-3.954 3.723-6.195a9.43 9.43 0 0 0 .318-1.61c7.407 5.889 14.711 1.453 15.952-9.353a16.358 16.358 0 0 0-.036-2.978 13.309 13.309 0 0 0 5.132-9.264c.195-2.794-1.158-5.887-2.41-8.589-3.119-6.358-10.142-11.476-6.173-15.3a14.3 14.3 0 0 1 5.857-4.344c1.425-.885 3.826-.838 4.274-2.655 1.331 2.3 2.713 4.795 4.225 7.083a1.841 1.841 0 0 0 .073.989c5.028 6.635 2.563 14.141 3.968 22.4a36.132 36.132 0 0 0 5.456 13.959 12.4 12.4 0 0 0 1.411 1.9c1.029 6.093 3.366 13.693 9.066 15.12a9.374 9.374 0 0 0 3.305-.01 33.6 33.6 0 0 0 8.919 8.176c4.065 2.922 8.622 5.613 12.339 5.775-2.117 5.3-15.158.364-20.668 7.467a7.735 7.735 0 0 0-2.406 6.311c-6.79 5 1.812 19.751 12.552 20.065a10.237 10.237 0 0 0 5.821-2.355 6.5 6.5 0 0 0 2.857 1.8c3.9.151 5.7-3.539 6.414-7.16 3.819.553 6.805-2.815 7.339-6.424.173-3.587-1.745-7.439-2.707-11.153-.587-1.552-.573-4.334-.262-4.552l1.019-2.449a246.067 246.067 0 0 0 31.7 27.992c15.205 11.156 31.609 19.852 48.072 27.352 17.388 8.237 35.643 13.439 53.376 14.5 5.034.277 10.2.348 15.13.234a2.241 2.241 0 0 0 2.358-1.54c3.198-3.378 1.346-4.85-1.446-4.276Zm-266.487-329a37.569 37.569 0 0 1-11.887-18.915 14.618 14.618 0 0 1-.579-2.943c5.91 5.784 12.08 11.155 18.069 16.537 2.417 2.231 5.013 4.451 7.43 6.682.173 1.379.166 2.77.29 3.954a1.422 1.422 0 0 1-.955-.138 29.05 29.05 0 0 1-12.368-5.18Zm30.24 9.609a21.358 21.358 0 0 1-8.809.756 24.155 24.155 0 0 1-3.095-.6c.311-.218.52-.827.831-1.046.99-1.851 1.381-2.471 2.552-4.333a68.074 68.074 0 0 1 7.772-10.425c4.57-5.057 13.406-11.378 21.317-18.434q-.587.93-1.172 1.862c-3.6 7.379-5.868 17.059-9.693 22.863-3.326 4.182-5.408 7.493-9.703 9.354Z"></path>
  <path fill="#98ded9" d="M530.087 1418.63c3.4-4.418 7.021-7.719 10.514-12.661.1-.141.2-.41.307-.552 9.464-6.137 20.7-13.153 30.027-21.313 14.713-12.976 27.376-29.248 38.763-46.367 14.584-20.872 25.651-44.712 33.438-69.892 2.974-11 12.777-35.049 5.8-43.673-6.8-4.435-24.258 7.766-31.012 12.513a221.081 221.081 0 0 0-64.651 76.562c-10.172 20.782-13.344 45.335-10.143 67.618.4 5.051 1.026 11.347-.05 16.215a28.076 28.076 0 0 1-3.452 7.489 2.746 2.746 0 0 0-.518.453 1.22 1.22 0 0 0-.2.666 75.883 75.883 0 0 1-6.6 7.662c-.619.722-1.235 1.572-1.854 2.294.244-4.372.488-8.745.625-13.231.009-18.762-1.973-37.127-3.745-55.519-.789-9.72-1.685-19.553-2.789-29.231 6.916-7.7 14.158-14.815 20.432-23.2a349.466 349.466 0 0 0 34.408-55.6c12.489-26.841 27.71-53.8 31.735-84.083.211-6.41.772-17.079-4.735-19.649-1.267-.338-2.622.357-3.872 1.037l-8.124 4.551a78.275 78.275 0 0 0-20.255 14.751c-24.086 24.717-42.282 62.544-48.1 99.071-2.358 16.529-1.771 33.169-3.393 49.726v.127c-.349-2.122-.7-4.245-1.152-6.225-3.429-16.891-8.635-33.158-12.064-50.049-1.821-8.559-3.54-17.259-5.361-25.818v-.127c.042-3.835-.007-6.891.886-10.076 1.7-5.336 6.338-10.944 9.817-16.777 7.877-13.2 13.205-28.088 19.384-42.329 9.8-24.05 18.86-48.638 23.692-74.565a144.332 144.332 0 0 0 2.53-18.851c.805-8.66-5.265-7.069-9.939-3.625a110.2 110.2 0 0 0-24.635 23.259c-6.168 8.5-10.2 18.873-14.136 28.98-5.745 15.075-11.272 30.632-13.427 46.75a117.943 117.943 0 0 0 .456 27.889c.655 7.951 2.875 15.18 4.783 22.578.438 1.089.362 2.886.9 3.961a19.377 19.377 0 0 0-1.4 4.4l-.277 2.335c-1.359-5.941-2.715-11.755-4.281-17.541-4-13.24-8.925-25.206-13.021-37.922-3.856-10.835-8.442-21.315-12.505-31.993a3.442 3.442 0 0 1 .3-.68 28.716 28.716 0 0 1 1.429-2.619c3.183-4.645 7.114-8.5 10.51-12.916 4.531-5.721 9.276-11.216 13.38-17.39a202.675 202.675 0 0 0 11.633-21.364c8.25-16.182 13.317-34.1 16.911-52.2 1.261-6.425 1.788-12.751 2.641-18.482.378-2.6.754-5.336.922-7.911-.019-1.146-.044-2.674-1-3.183-1.271-.593-2.4.965-3.333 1.857q-3.568 3.549-7.143 6.715c-6.431 5.214-13.4 9.607-19.183 16.009a94.581 94.581 0 0 0-22.658 41.37c-2.636 12.355-1.906 24.891-1.916 37.145-.093 7.16-.08 14.432-1.341 20.858-.578 3.269-1.471 6.454-2.258 9.751a206.9 206.9 0 0 1-6.543-20.934 30.734 30.734 0 0 1-.7-4.372 4.1 4.1 0 0 0 .5-1.6 21.024 21.024 0 0 1 .886-3.694c1.884-6.893 4.19-13.716 5.231-20.749.735-6.482-.1-12.877-.418-19.215a253.233 253.233 0 0 0-4.771-34.705 543.3 543.3 0 0 0-25.764-78.939c-1.082-1.9-2.7-10.864-5.076-8.372-2.539 5.451-3.907 11.763-5.81 17.51-8.057 28.025-6.832 57.978.013 84.488a205.83 205.83 0 0 0 7.522 22.971c3.17 7.482 7.379 14.185 11.17 21.072 3.575 6.533 7.462 12.9 12.38 17.971a13.273 13.273 0 0 0 1.921 1.781 120.9 120.9 0 0 0 5.54 23.879c-12.032-15.977-19.454-39.217-36.444-49.8-7.65-5.086-16.314-7.865-25.167-9.341a59.746 59.746 0 0 0-20.406-.927c-3.352.712-6.93.432-10.051 2.388-4.231 4.787 1.561 11.912 4.241 15.122 5.14 5.81 11.411 10.062 17.469 14.216 5.422 3.73 10.635 7.616 16.363 10.793-1.686 12.609-3.578 25.5-1.268 38.206 4.3 25.451 17.4 48.558 36.805 59.065 5.937 3.149 12.569 3.779 19 4.946a24.583 24.583 0 0 1 10.476 4.319c5.857 4.692 11.922 9.228 18.594 12.277a8.57 8.57 0 0 0 1.587.677c2.3 11.813 4.382 23.781 6.887 35.566 3.635 16.607 8.209 32.833 10.591 49.994.482 3.763.964 7.526 1.339 11.176-8.2-19.305-14.217-40.312-24.907-57.747a226.953 226.953 0 0 0-24.17-31.939c-6.092-6.191-12.407-13.118-20.334-15.868-13.314-4.316-27.869-.933-41.21-.523-3.654 1.518-.612 7.613.166 10.187 5.384 14.329 14.706 25.186 23.916 35.675 9.107 10.631 17.7 21.843 27.731 31.2 7.483 7.662 16.5 12.69 25.612 17.194 6.572 3.445 12.738 7.712 19.007 11.837a75.829 75.829 0 0 0 14.947 7.795c.764 8.192 1.422 16.271 2.081 24.477 1.414 15.761 2.7 30.136 2.959 46.055.037 8.673-.348 17.277-.943 25.909-6.7-4.832-9.906-14.479-13.628-23.545-5.359-12.8-12.069-24.651-18.984-36.218-7.021-11.553-14.857-21.591-21.865-32.38-9.605-15.285-19.726-30.118-31.292-43.223-5.352-5.909-11.633-10.8-18.82-13.266-4.981-2.514-5.435 1.887-4.722 6.895 4.491 24.022 5.96 49.6 15.145 71.455a188.68 188.68 0 0 0 12.713 25.456c3.353 5.8 6.813 11.709 11.3 16.331 11.433 11.464 25.537 19.118 40.013 23.786 5.075 1.863 10.436 1.9 15.8 1.936a38.785 38.785 0 0 0 7.664-.531l.525-.072a22.618 22.618 0 0 0 3.638 3.973 16.168 16.168 0 0 0 2.341 1.724 353.91 353.91 0 0 1-7.206 47.946 57.231 57.231 0 0 0-4.625-12.9 28.181 28.181 0 0 0-9.623-10.051c-9.222-4.744-18.691-5.371-27.6-10.286-7.734-3.8-13.6-9.126-20.323-15.232-4.268-3.886-8.542-8.155-13.829-10.116-8.88-3.132-18.768 2.807-26.331 9.578-2.794 2.678-5.693 5.369-8.273 8.272-2.364 3.257-.521 6.708 1.511 8.857 4.276 4.395 9.675 6.725 15.169 8.53a201.159 201.159 0 0 1 19.04 7.366c7.418 3.714 15.05 7.653 23.725 4.687 5.021-1.448 9.5-4.226 14-5.094 9.547-1.043 17.472 7.962 24.953 15.5a21.023 21.023 0 0 0 8.175 5.014 6.428 6.428 0 0 0 3.158.337c-2.743 12.242-5.274 24.583-8.862 36.558-.4 1.33-.4 1.076-.9 2.547v.255c0 .127 0 .127-.1.269v.128c-.1.523.121 1 .543 1.074a7.355 7.355 0 0 0 3.561-.739c1.483.692 3.154-6.428 3.559-7.376 2.293-7.587 4.268-15.385 6.245-23.057a17.694 17.694 0 0 0 6.6-1.535 22.814 22.814 0 0 0 5.191-3.9c.218.481.952.381 1.579.168 3.352-.711 6.828-.29 10.607-.549a113.835 113.835 0 0 0 13-1.9c10.576-2.458 20.69-7.407 30.471-13.46a134.187 134.187 0 0 0 42.776-38.744c4-6.032 8.314-12.234 10.085-19.622.29-1.571.888-3.567-.077-4.712s-2.634-.408-3.9-.619a41.4 41.4 0 0 1-7.049-.445c-8.538-1.519-17.179-2.9-26.075-.539-18.216 4.392-42.352 26.052-52.331 45.787-4.7 8.552-7.687 18.4-12.93 25.625a57.719 57.719 0 0 1-9.823 9.887 13.85 13.85 0 0 1-7.214 2.384l-.209.029c.789-3.17 1.576-6.468 2.365-9.638a446.843 446.843 0 0 0 8.487-59.604Zm-44.647-204.643a1.266 1.266 0 0 0-.426-.325c.086-1.161-.883-2.561-.9-3.834-1.055-6.621-2.006-13.383-4.417-19.437-4.837-13-11.436-24.481-17.829-36.247-6.075-11.554-13.393-22.045-20.193-32.99l-3.24-5.3c2.433.946 4.761 1.9 7.194 2.851 7.2 2.978 14.3 6.479 21.99 7.858.212.1.421.07.633.169s.321.339.533.438l.21-.028c2.318 6.831 4.95 13.493 7.266 20.2 3.516 9.349 6.07 17.681 8.959 27.243 3.1 9.788 6.182 18.176 8.66 28.3 1.465 6.055 2.723 12.265 3.873 18.363a78.183 78.183 0 0 1-12.313-7.261Z"></path>
  <path fill="#42c2b9" d="M568.1 1429.964c2.927-.158 5.526.326 8.685-.02.091-.009.229-.077.321-.086 5.864 2.411 12.726 5.4 19.289 6.8 10.393 2.161 21.232 1.663 31.9.068 13.276-1.558 26.322-6.436 38.623-13.75 5.21-3.432 17.855-9.108 18.416-16.955-.928-5.818-12.072-9.858-16.394-11.409a86.53 86.53 0 0 0-52.923-.468c-11.571 3.961-21.891 13.544-28.953 25.61-1.725 2.554-3.825 5.81-6.041 7.462a11.026 11.026 0 0 1-4.088 1.546 1.147 1.147 0 0 0-.365-.078.518.518 0 0 0-.323.2 29.386 29.386 0 0 1-5.346-.12c-.5-.009-1.052.041-1.554.032 1.716-1.884 3.432-3.769 5.15-5.765 6.971-8.661 13.04-18.241 19.2-27.719 3.31-4.927 6.623-9.965 9.8-15.047 5.482.275 10.865 1 16.355.609a132.986 132.986 0 0 0 33.683-6.612c14.7-5.475 30.476-9.491 43.247-21.248 2.461-2.844 6.636-7.461 5.5-11.7a3.53 3.53 0 0 0-1.852-1.667l-4.767-2.4a35.013 35.013 0 0 0-13.151-4.412c-18.3-1.933-39.244 5.454-55.011 19.1-7.032 6.328-12.989 14.339-19.752 21.088l-.047.06c.656-1.174 1.311-2.349 1.875-3.514 4.974-9.7 9.043-20.1 14.017-29.8 2.489-4.963 5.069-9.934 7.557-14.9l.047-.06a18.961 18.961 0 0 1 4.077-4.163c2.626-1.523 6.466-1.542 9.95-2.309 7.884-1.729 15.432-5.654 23.062-8.807 12.645-5.676 25.207-12.013 36.666-21.31a69.557 69.557 0 0 0 7.959-7.305c3.521-3.554.63-6.183-2.419-7.183a45.1 45.1 0 0 0-17.97-2.91c-5.491.506-10.873 3.062-16.117 5.55-7.774 3.779-15.645 7.9-22.447 14.153a65.534 65.534 0 0 0-10.185 13.133c-2.7 4.036-4.548 8.605-6.573 13.08-.238.746-.934 1.534-1.128 2.331a8.157 8.157 0 0 0-2.165 1.258l-.972.925c1.692-3.5 3.338-6.935 4.893-10.475 3.4-8.332 5.98-16.588 9.15-24.732 2.563-7.142 4.718-14.524 7.145-21.708a1.326 1.326 0 0 1 .368-.145 10.8 10.8 0 0 1 1.513-.418c2.931-.382 5.851.018 8.778-.141a99.665 99.665 0 0 0 11.527-.617 77.717 77.717 0 0 0 12.34-3.42c9.135-2.9 17.709-8.37 25.792-14.739 2.864-2.269 5.413-4.9 7.865-7.073 1.11-.993 2.266-2.046 3.287-3.143a2.622 2.622 0 0 0 .8-2.023c-.262-.978-1.268-.885-1.953-.989q-2.668-.339-5.2-.858c-4.373-1.156-8.645-2.99-13.212-3.237a36.712 36.712 0 0 0-23.946 6.55c-5.587 4.246-9.966 10.441-14.521 16.1-2.694 3.255-5.39 6.622-8.254 8.891-1.433 1.19-2.954 2.165-4.477 3.252 1.518-4.149 3.228-8.984 5.3-13.3a19.71 19.71 0 0 1 1.358-2.409 1.712 1.712 0 0 0 .783-.462 9.351 9.351 0 0 1 1.707-1.215c3.274-2.139 6.681-4.012 9.688-6.684 2.685-2.586 4.742-6.006 6.977-9.107a158.345 158.345 0 0 0 11.081-18.674 400.751 400.751 0 0 0 19.552-50.75c.293-1.474 3.012-6.514 1.185-6.68-2.985 1.111-5.848 3.268-8.7 4.867-13.459 8.48-24.119 22.994-31.371 39.032a152.2 152.2 0 0 0-5.682 14.778c-1.577 5.213-2.472 10.642-3.594 15.924a74.411 74.411 0 0 0-1.984 15.162 12.9 12.9 0 0 0 .067 1.887 82.473 82.473 0 0 0-6.77 14.1c1.375-14.048 7.195-28.895 4.688-43.2a61.457 61.457 0 0 0-6.065-18.263 48.989 48.989 0 0 0-7.385-11.737c-1.534-1.529-2.786-3.641-4.694-4.468-3.381-.134-3.833 6.368-4.01 9.335a90.615 90.615 0 0 0 1.338 16.249c.669 4.727 1.2 9.411 2.19 14.053-5.321 4.89-10.825 9.8-14.668 16.944-7.821 14.141-11.442 32.072-7.993 47.68 1.079 4.745 3.358 8.712 5.36 12.815a23.9 23.9 0 0 1 2.365 7.8 91.39 91.39 0 0 0 2.484 15.976 8.3 8.3 0 0 0 .35 1.192c-3.518 6.728-7.172 13.413-10.6 20.244-4.791 9.686-9.084 19.715-14.555 28.962-1.215 2.005-2.43 4.011-3.643 5.9 4.064-13.46 9.585-26.5 12.01-40.476a209.56 209.56 0 0 0 2.706-28.148c-.009-6.236.172-12.935-1.81-18.6-3.44-9.372-10.21-15.876-15.416-23.081-1.948-1.324-3.059 3.178-3.721 4.8-3.281 9.6-3.782 19.783-4.189 29.732-.5 9.958-1.407 19.9-1.081 29.78-.011 7.686 1.537 15 3.316 22.136 1.211 5.234 1.962 10.623 2.8 16a75.532 75.532 0 0 0 2.768 11.885c-2.753 4.207-5.5 8.3-8.3 12.459-5.318 8.063-10.169 15.415-15.982 22.912-3.207 4.026-6.548 7.787-9.979 11.444-.744-5.946 1.624-12.178 3.581-18.428a239.928 239.928 0 0 0 6.259-27.25c1.631-9.227 2.39-18.207 3.742-27.074a302.792 302.792 0 0 0 4.2-37.307 46.169 46.169 0 0 0-2.2-16.559c-.953-3.921-2.76-2.14-4.35.568-7.219 13.585-16.163 26.214-20.8 41.4a156.049 156.049 0 0 0-4.638 18.8 74.337 74.337 0 0 0-1.784 13.807 98.543 98.543 0 0 0 6.324 33.163 39.748 39.748 0 0 0 5.265 9.65 29.11 29.11 0 0 0 3.1 4l.225.258a21.661 21.661 0 0 0-.1 3.851 16.037 16.037 0 0 0 .247 2.093 167.893 167.893 0 0 1-20.536 18.153 43.227 43.227 0 0 0 3.039-8.521 27.123 27.123 0 0 0 .087-9.976c-1.731-7.3-5.086-12.841-6.636-20.048-1.519-6.041-1.763-11.755-2.042-18.3-.173-4.16-.207-8.5-1.481-12.337-2.2-6.368-8.152-9.105-13.531-10.169a58.86 58.86 0 0 0-6.206-.764c-2.105.194-2.689 2.809-2.717 4.928a35.62 35.62 0 0 0 2.578 12.347c1.631 4.583 3.169 9.175 4.477 13.955 1.431 5.826 2.859 11.876 7.247 15.314 2.44 2.114 5.166 3.31 7.195 5.406 4 4.81 3.662 13.362 3.7 20.987a20.96 20.96 0 0 0 1.234 6.847 5.475 5.475 0 0 0 1.072 1.906c-5.586 4.135-11.128 8.432-16.934 11.974-.645.394-.552.274-1.289.676l-.093.12c-.046.059-.046.059-.138.068l-.046.06a.672.672 0 0 0-.194.8 4.933 4.933 0 0 0 1.624 1.633c.305 1.141 3.582-1.221 4.087-1.435 3.686-2.233 7.331-4.741 10.928-7.188a11.541 11.541 0 0 0 3.069 2.947 10.061 10.061 0 0 0 3.414 1.077c-.1.343.219.7.536.953 1.533 1.53 2.694 3.65 4.221 5.625a80.215 80.215 0 0 0 5.63 6.331 66.445 66.445 0 0 0 47.133 16.483c3.756-.569 7.693-1.043 11.108-3.474.693-.565 1.661-1.155 1.72-2.219s-.846-1.648-1.247-2.446a34.6 34.6 0 0 1-2.5-4.113c-2.67-5.434-5.432-10.859-9.677-14.7-8.532-8.068-25.718-11.44-36.827-7.855-4.955 1.347-9.747 4.239-14.414 4.669a23.108 23.108 0 0 1-7.393-.878 8.2 8.2 0 0 1-3.618-2.9l-.09-.1c1.476-1.027 3-2.114 4.475-3.141a213.557 213.557 0 0 0 25.352-22.824Zm59.08-119.264a1.267 1.267 0 0 0-.04-.386c.463-.488.616-1.671 1.081-2.271a62.227 62.227 0 0 0 5.546-11.425c2.995-8.685 4.759-17.646 6.707-26.624 1.989-8.7 3.113-17.605 4.6-26.429l.742-4.245c.57 1.785 1.1 3.518 1.666 5.3 1.62 5.364 3.009 10.916 5.412 15.818.044.163.134.266.177.429s0 .334.039.5l.09.1c-1.658 4.44-3.136 8.976-4.748 13.356-2.14 6.267-4.267 11.531-6.724 17.548-2.459 6.241-4.408 11.822-7.231 17.874-1.693 3.608-3.523 7.174-5.351 10.628a78.029 78.029 0 0 1-1.966-10.173Z"></path>
  <path fill="#b2b7f0" fill-rule="evenodd" d="M436.672 1474.326h199.792s-13.74 26.278-26.805 51.272a82.49 82.49 0 0 1-73.089 44.263 82.492 82.492 0 0 1-73.089-44.263c-13.069-24.998-26.809-51.272-26.809-51.272Z"></path>
  <g clip-path="url(#a)">
    <path fill-opacity=".2" fill-rule="evenodd" d="M614.36 1474.322c-33.534-1.246-151.078-5.693-179.135 0-11.717 2.385 10.778 34.2 10.778 34.2S608.39 1487.5 636.447 1481.8c7.616-1.546-14.317-7.186-22.087-7.478Z"></path>
  </g>
  <path fill="#1a2283" fill-rule="evenodd" d="M644.466 1452.483h-215.8v.03a29.282 29.282 0 0 0 29.285 29.284h157.23a29.282 29.282 0 0 0 29.285-29.284Z"></path>
  <g fill-rule="evenodd">
    <path fill="#737ce3" d="M1536.822 474.961a52.175 52.175 0 0 0-52.176-52.172h-268.715a52.175 52.175 0 0 0-52.176 52.172v.032a52.175 52.175 0 0 0 52.176 52.172h268.715a52.175 52.175 0 0 0 52.176-52.172Z"></path>
    <g fill="#fff">
      <path d="M1372.831 495.319c-.63.822-2.156.411-4.238-1.138a38.321 38.321 0 0 1-6.866-7.129l-12.722-16.571a45.751 45.751 0 0 1-5.474-8.946c-1.19-2.712-1.5-4.7-.873-5.519.631-.822 2.155-.413 4.237 1.136a38.375 38.375 0 0 1 6.868 7.131l12.721 16.571a45.736 45.736 0 0 1 5.474 8.945c1.189 2.711 1.5 4.7.873 5.52Z"></path>
      <path d="M1372.085 455.9c.631.822.316 2.809-.874 5.521a45.771 45.771 0 0 1-5.473 8.944l-12.722 16.571a38.312 38.312 0 0 1-6.868 7.131c-2.082 1.549-3.606 1.958-4.237 1.136-.631-.821-.317-2.807.873-5.519a45.8 45.8 0 0 1 5.474-8.946l12.722-16.57a38.3 38.3 0 0 1 6.867-7.13c2.081-1.549 3.607-1.96 4.238-1.138Z"></path>
      <path d="M1378.827 474.75c0 1.162-1.3 2.277-3.615 3.1a27.269 27.269 0 0 1-8.726 1.283H1348.5a27.271 27.271 0 0 1-8.727-1.283c-2.313-.822-3.613-1.937-3.613-3.1 0-1.162 1.3-2.277 3.613-3.1a27.3 27.3 0 0 1 8.727-1.283h17.991a27.3 27.3 0 0 1 8.726 1.283c2.313.822 3.615 1.937 3.615 3.1ZM1308.015 495.319c-.631.822-2.156.411-4.238-1.138a38.355 38.355 0 0 1-6.867-7.129l-12.721-16.571a45.76 45.76 0 0 1-5.475-8.946c-1.189-2.712-1.5-4.7-.872-5.519.631-.822 2.155-.413 4.237 1.136a38.375 38.375 0 0 1 6.868 7.131l12.721 16.571a45.679 45.679 0 0 1 5.473 8.945c1.19 2.711 1.5 4.7.874 5.52Z"></path>
      <path d="M1307.269 455.9c.63.822.315 2.809-.874 5.521a45.771 45.771 0 0 1-5.473 8.944l-12.722 16.574a38.344 38.344 0 0 1-6.868 7.131c-2.082 1.549-3.606 1.958-4.237 1.136-.631-.821-.317-2.807.873-5.519a45.8 45.8 0 0 1 5.474-8.946l12.722-16.57a38.3 38.3 0 0 1 6.866-7.13c2.082-1.549 3.608-1.96 4.239-1.138Z"></path>
      <path d="M1314.01 474.75c0 1.162-1.3 2.277-3.614 3.1a27.269 27.269 0 0 1-8.726 1.283h-17.991a27.271 27.271 0 0 1-8.727-1.283c-2.314-.822-3.613-1.937-3.613-3.1 0-1.162 1.3-2.277 3.613-3.1a27.3 27.3 0 0 1 8.727-1.283h17.991a27.3 27.3 0 0 1 8.726 1.283c2.313.822 3.614 1.937 3.614 3.1ZM1243.442 495.319c-.631.822-2.156.411-4.238-1.138a38.355 38.355 0 0 1-6.867-7.129l-12.721-16.571a45.7 45.7 0 0 1-5.474-8.946c-1.19-2.712-1.5-4.7-.873-5.519.631-.822 2.155-.413 4.237 1.136a38.375 38.375 0 0 1 6.868 7.131l12.721 16.571a45.736 45.736 0 0 1 5.474 8.945c1.189 2.711 1.5 4.7.873 5.52Z"></path>
      <path d="M1242.7 455.9c.631.822.315 2.809-.874 5.521a45.771 45.771 0 0 1-5.473 8.944l-12.722 16.571a38.312 38.312 0 0 1-6.868 7.131c-2.082 1.549-3.606 1.958-4.237 1.136-.631-.821-.317-2.807.873-5.519a45.8 45.8 0 0 1 5.474-8.946l12.722-16.57a38.3 38.3 0 0 1 6.867-7.13c2.081-1.549 3.607-1.96 4.238-1.138Z"></path>
      <path d="M1249.438 474.75c0 1.162-1.3 2.277-3.615 3.1a27.269 27.269 0 0 1-8.726 1.283h-17.991a27.271 27.271 0 0 1-8.727-1.283c-2.313-.822-3.613-1.937-3.613-3.1 0-1.162 1.3-2.277 3.613-3.1a27.3 27.3 0 0 1 8.727-1.283h17.994a27.3 27.3 0 0 1 8.726 1.283c2.313.822 3.615 1.937 3.615 3.1ZM1494.725 495.323c-.631.821-2.156.411-4.238-1.139a38.355 38.355 0 0 1-6.867-7.129l-12.72-16.571a45.73 45.73 0 0 1-5.475-8.946c-1.189-2.712-1.5-4.7-.872-5.519.63-.822 2.155-.413 4.236 1.137a38.313 38.313 0 0 1 6.869 7.131l12.721 16.57a45.806 45.806 0 0 1 5.473 8.945c1.19 2.712 1.5 4.7.874 5.521Z"></path>
      <path d="M1493.978 455.906c.631.822.316 2.809-.874 5.521a45.709 45.709 0 0 1-5.473 8.945l-12.721 16.57a38.344 38.344 0 0 1-6.868 7.131c-2.082 1.55-3.606 1.959-4.237 1.137-.631-.822-.317-2.807.873-5.519a45.674 45.674 0 0 1 5.474-8.946l12.721-16.571a38.355 38.355 0 0 1 6.867-7.129c2.082-1.55 3.607-1.96 4.238-1.139Z"></path>
      <path d="M1500.72 474.754c0 1.162-1.3 2.276-3.615 3.1a27.266 27.266 0 0 1-8.725 1.284h-17.991a27.272 27.272 0 0 1-8.728-1.284c-2.313-.822-3.613-1.936-3.613-3.1 0-1.163 1.3-2.277 3.613-3.1a27.272 27.272 0 0 1 8.728-1.284h17.991a27.266 27.266 0 0 1 8.725 1.284c2.314.822 3.615 1.936 3.615 3.1ZM1430.154 495.323c-.631.821-2.156.411-4.238-1.139a38.355 38.355 0 0 1-6.867-7.129l-12.721-16.571a45.73 45.73 0 0 1-5.475-8.946c-1.189-2.712-1.5-4.7-.872-5.519.631-.822 2.155-.413 4.237 1.137a38.344 38.344 0 0 1 6.868 7.131l12.721 16.57a45.806 45.806 0 0 1 5.473 8.945c1.19 2.712 1.505 4.7.874 5.521Z"></path>
      <path d="M1429.407 455.906c.631.822.316 2.809-.873 5.521a45.766 45.766 0 0 1-5.474 8.945l-12.721 16.57a38.344 38.344 0 0 1-6.868 7.131c-2.082 1.55-3.606 1.959-4.237 1.137-.631-.822-.317-2.807.873-5.519a45.674 45.674 0 0 1 5.474-8.946l12.721-16.571a38.355 38.355 0 0 1 6.867-7.129c2.082-1.55 3.607-1.96 4.238-1.139Z"></path>
      <path d="M1436.149 474.754c0 1.162-1.3 2.276-3.615 3.1a27.266 27.266 0 0 1-8.725 1.284h-17.991a27.272 27.272 0 0 1-8.728-1.284c-2.313-.822-3.613-1.936-3.613-3.1 0-1.163 1.3-2.277 3.613-3.1a27.272 27.272 0 0 1 8.728-1.284h17.991a27.266 27.266 0 0 1 8.725 1.284c2.314.822 3.615 1.936 3.615 3.1Z"></path>
    </g>
  </g>
  <g fill-rule="evenodd">
    <path fill="#192280" d="M959.45 332.463a53.1 53.1 0 0 1 52.349 44.253c19.109 113.192 69.822 413.536 91.849 543.984a53.083 53.083 0 0 1-52.349 61.926H578.366a53.082 53.082 0 0 1-52.34-44.254C506.908 825.18 456.2 524.836 434.169 394.388a53.1 53.1 0 0 1 52.349-61.925Z"></path>
    <path fill="#e7e7e7" d="M617.174 938.433a53.089 53.089 0 0 1-52.349-44.254C546.85 787.7 501.133 516.931 480.44 394.388a53.083 53.083 0 0 1 52.34-61.925h433.467a53.084 53.084 0 0 1 52.349 44.253c17.984 106.482 63.7 377.249 84.386 499.792a53.084 53.084 0 0 1-52.341 61.925Z"></path>
    <path fill="#fff" d="M755.579 425.922c8.892-1.134 18.139-2.337 27.542-2.961 6.053-.4 12.174-.641 18.252-.459a157.624 157.624 0 0 1 29.595 3.862 8.472 8.472 0 0 0 3.091-16.659c-10.511-1.55-21.43-1.818-32.444-1.853-6.381-.017-12.788-.017-19.152.121-9.68.217-19.239.555-28.443 1.083a8.469 8.469 0 1 0 1.559 16.866ZM755.241 486.566c9.386-.623 46.678-1.42 83.563-1.671 20.468-.139 40.8.1 56.262-.294 6.165-.165 11.576-.364 15.941-.676a8.469 8.469 0 0 0-1.568-16.866c-13.282 1.48-36.694 2.736-61.431 3.151-12.468.208-25.257.13-37.257.026-26.573-.234-49.3-.831-56.393-.589a8.471 8.471 0 0 0 .883 16.919ZM756 556.171c30.088-.615 58.929-1.437 87.217-2.364 19.585-.632 38.9-1.411 58.176-2.207 32.114-1.334 64.107-2.823 97.009-5.481a8.47 8.47 0 1 0-1.568-16.867c-32.572 3.412-64.254 6.113-96.108 7.715-19.17.961-38.4 1.489-57.9 1.844-28.209.52-56.981.476-86.983.424a8.468 8.468 0 1 0 .157 16.936ZM679.769 788.243c-.121-.121-.19-.321-.32-.477a10.42 10.42 0 0 1-1.212-1.974 35.894 35.894 0 0 1-2.529-7.81c-1.679-7.524-2.173-15.654-2.658-19.195l-2.883-24.187c-1.732-15.819-3-32.374-5.879-48.461a163.067 163.067 0 0 0-9.013-32.556c-7.057-17.421-17.967-22.14-28.114-20.625-9.1 1.36-18.85 8.936-26.088 20.4a161.753 161.753 0 0 0-4.788 8.13c-2.217 4.018-4.3 8.113-6.364 12.217-3.524 7.014-6.944 14.079-10.053 21.283-2.1 4.883-4.069 9.827-5.836 14.849a8.468 8.468 0 0 0 16 5.55c2-5.845 4.295-11.576 6.763-17.231 2.519-5.757 5.221-11.428 7.991-17.065 1.931-3.922 3.879-7.836 5.957-11.68a147.616 147.616 0 0 1 4.243-7.36c4.234-6.832 9.239-12.252 14.633-13.109 4.441-.7 7.758 3.091 10.909 10.693a146.9 146.9 0 0 1 8.356 29.326c2.952 15.715 4.268 31.9 6.078 47.353l3.091 24.582c.753 5.255 1.766 19.68 5.74 29.256 2.97 7.144 7.741 11.837 13.516 12.858 6.07 1.074 12.287-2.112 17.291-8.658 6.407-8.39 11.317-22.607 13.317-27.248 8.39-19.465 15.074-39.7 22.858-59.432 3.256-8.277 6.728-16.451 10.6-24.46 2.174-4.5 4.909-11.022 8.814-15.949 1.784-2.242 3.741-4.242 6.3-4.736 3.333-.649 6.069 1.611 8.892 4.243 5.186 4.831 9.948 11.784 14.728 17.663 4.658 5.715 9.455 10.451 14.278 12.788a31.514 31.514 0 0 0 15.524 2.962c8.313-.373 17-3.559 25.482-6.061 6.468-1.9 12.754-3.7 18.417-1.091 4.805 2.216 7.74 7.126 10.294 12.537 4.91 10.408 7.906 22.928 12.226 31.058 6.884 12.927 16.512 20.07 27.456 23.594 15.126 4.884 33.205 2.329 50.315-2.112a8.47 8.47 0 1 0-4.347-16.373c-11.645 3.142-23.828 5.593-34.807 4.112-9.8-1.316-18.486-6.052-24.4-16.884-5.117-9.377-8.5-24.685-15.143-35.69-3.9-6.442-8.806-11.593-15.118-14.442a30.917 30.917 0 0 0-15.871-2.381c-8.035.753-16.563 4.1-25 6.537-6.365 1.836-12.668 3.368-18.5.606-4.658-2.216-8.84-8.1-13.394-13.888-5.568-7.065-11.386-14.2-17.6-18.148-5.108-3.256-10.529-4.65-16.278-3.5a23.731 23.731 0 0 0-12.252 7.013c-5.956 6.061-10.165 15.49-13.186 21.8-4 8.329-7.577 16.849-10.97 25.456-7.732 19.585-14.469 39.63-22.841 58.921-1.369 3.151-4.122 11.16-7.871 18.2a36.61 36.61 0 0 1-4.641 7.039 14.057 14.057 0 0 1-2.113 1.757ZM600.631 853.789c20.33-.191 40.66-.658 60.99-1.186 40.591-1.066 81.181-2.858 121.772-4.373 40.556-1.515 81.1-2.658 121.617-3.81a8.47 8.47 0 1 0-.641-16.927c-36.444 1.74-72.9 3.888-109.408 5.541q-36.431 1.663-72.9 2.685-60.717 1.688-121.426 1.134a8.468 8.468 0 1 0 0 16.936ZM606.43 894.383c9.689.1 19.386-.347 29.127-.8 6.382-.294 12.771-.667 19.17-.857 10.572-.3 21.127-.2 31.621-.086a8.467 8.467 0 0 0-.425-16.928c-7.956.511-15.9 1.282-23.914 1.844-5.256.364-10.529.71-15.8.866a380.185 380.185 0 0 1-39.023-.961 8.468 8.468 0 1 0-.754 16.919Z"></path>
    <path fill="#737ce3" d="M688.666 545.764a8.429 8.429 0 0 0 5.931-7.888 121.982 121.982 0 0 0 20.803-59.025c2.086-25.906-4.156-52.349-19.724-74.272-12.65-17.871-34.348-30.6-54.419-30.278-12.832.2-25.178 5.42-34.607 17.758a47.586 47.586 0 0 0-16.893 11.75c-9.836 10.234-17.43 24.624-21.949 34.252-12.693 26.98-17.906 63.242-8.165 92.4 6.8 20.364 20.65 37.421 44.011 46.045a61.8 61.8 0 0 0 13.057 3.282 62.922 62.922 0 0 0 13.438.433 71.045 71.045 0 0 0 31.153-10.356 105.482 105.482 0 0 0 24.313-20.529 109.376 109.376 0 0 0 3.051-3.572Zm-12.766-7.472a446.339 446.339 0 0 1-5.923-7.984c-7.125-9.835-13.922-19.871-21.1-29.724a96.961 96.961 0 0 0-7.291-9.3c-2.043-2.156-4.26-4.147-6.926-4.8-1.827-.433-3.516.788-5.2 1.914a61.768 61.768 0 0 0-7.871 6.779c-7.316 7-14.554 14.59-21.455 22.477a362.313 362.313 0 0 0-18.685 23.283 55.442 55.442 0 0 0 27.4 21.646 46.774 46.774 0 0 0 9.94 2.554 47.984 47.984 0 0 0 10.277.364 56.277 56.277 0 0 0 24.729-8.217 90.338 90.338 0 0 0 20.919-17.628c.402-.447.8-.906 1.186-1.364Zm10.035-14.07a106.679 106.679 0 0 0 14.537-46.514c1.628-22.373-3.922-45.179-17.559-63.968-8.147-11.187-20.815-19.9-33.647-22.348-8.182-1.567-16.407-.3-23.265 4.918a8.126 8.126 0 0 1 .26 2.07 8.337 8.337 0 0 1-.156 1.619l3.481 12.381c1.965 8.694 3.533 17.378 5.255 26.01 1.152 5.8 2.4 11.56 3.524 17.369 1.143 5.879 2.252 11.767 3.23 17.724a30.834 30.834 0 0 1 8.39 5.55c4.191 3.767 7.793 8.641 10.806 12.529 6.468 8.234 12.641 16.633 19.014 24.884q3.03 3.911 6.134 7.776Zm-73.857-114.56a8.3 8.3 0 0 1-3.333-.044 38.059 38.059 0 0 0-7.039 5.81c-8.641 8.789-15.222 21.309-19.239 29.621-9.456 19.559-14.616 44.773-11.3 67.466a81.236 81.236 0 0 0 2.463 11.285 403.65 403.65 0 0 1 14.772-16.728c7.454-8 15.2-15.706 23.048-22.789 3.455-3.169 8.208-7.55 13.3-10.1-.8-9.489-1.7-18.858-3.334-28.139-1.766-10.044-4.364-19.924-6.987-29.915a64.871 64.871 0 0 0-2.347-6.467Z"></path>
  </g>
  <path fill="#1a2283" fill-rule="evenodd" d="M1621.239 1473.828c12.5-25.593 67.128 52.5 46.248 71.907-28.8 26.775-192.664 92.655-219.069 88.728s31.858-85.555 60.658-112.33 77.285 23.081 112.163-48.305Z"></path>
  <g clip-path="url(#b)">
    <path fill="#fff" fill-rule="evenodd" d="M1688.829 1479.838c-8.89 6.307-26.24 40.518-46.245 52.529-33.649 20.217-116.451 57.783-155.661 68.777-25.551 7.164-67.211-6.223-79.566-2.805-7.687 2.123-2.482 22.217 5.426 23.317 14.166 1.964 54.2-2.909 79.59-11.519 38.547-13.066 117.758-47.617 151.677-66.886 20.63-11.714 44.389-38.166 51.856-48.738 3.129-4.436-2.652-17.82-7.077-14.675Z"></path>
  </g>
  <path fill="#1a2283" fill-rule="evenodd" d="M1127.631 1353.687c24.639-14.293 26.517 80.991-1.631 85.48-38.832 6.2-211.623-30.335-231.368-48.3s74.105-53.32 112.937-59.52 51.338 62.209 120.062 22.34Z"></path>
  <g clip-path="url(#c)">
    <path fill="#fff" fill-rule="evenodd" d="M1180.423 1396.319c-10.9.287-44.358 19.04-67.663 17.876-39.207-1.947-128.9-16.856-167.591-29.56-25.212-8.279-52.359-42.6-64.525-46.64-7.567-2.518-14.434 17.071-8.478 22.389 10.673 9.52 46.637 27.766 72.521 34.755 39.293 10.614 124.326 26.029 163.23 28.913 23.659 1.759 58.123-6.981 70.213-11.6 5.07-1.946 7.72-16.281 2.293-16.133Z"></path>
  </g>
  <path fill="#69bac9" fill-rule="evenodd" d="M1393.209 1061.752c-110.6 52.95-213.343-14.715-255.251 59.551-41.192 73 104.683 229.64-16.141 252.775-57.734 11.051-155.513-38.574-166.182-99.136s29.209-209.749 102.131-264.23 238.968-79.225 335.439-62.637c100.895 17.343 106.543 62.679.004 113.677Z"></path>
  <g fill-rule="evenodd" clip-path="url(#d)">
    <g fill="#fff">
      <path d="M1272.509 918.174c1.55.875 2.286 2.753 2.875 4.667a37.964 37.964 0 0 1 1.507 9.671 82.58 82.58 0 0 1-14.884 49.431c-6.511 9.2-15.43 14.867-25.439 18.374-16.044 5.628-34.6 6.043-50.756 6.719a224.437 224.437 0 0 0-42.028 5.091c-13.862 3.169-27.265 8.035-39.439 15.637-16.347 9.879-26.936 23.4-34.781 38.712-17.654 34.435-20.5 78.7-40.167 112.291a211.91 211.91 0 0 1-13.4 20.2 134.976 134.976 0 0 1-15.923 17.7c-15.654 14.486-32.729 25.742-47.084 40.461a119.681 119.681 0 0 0-17.326 22.322 8.467 8.467 0 1 0 14.789 8.251 111.194 111.194 0 0 1 19.533-26.33c12.105-12.442 25.906-23.1 38.5-36.089a149.445 149.445 0 0 0 16.209-20.061 229.147 229.147 0 0 0 13.014-21.8c18.52-34.634 19.282-79.588 36.235-114.768 7.1-14.736 17.222-27.62 32.669-37.179a119.753 119.753 0 0 1 38.244-14.33c13.49-2.7 27.413-3.533 41.067-3.524 16.945.121 36.322.355 53.423-4.58 12.217-3.533 23.23-9.724 31.724-20.226a95.7 95.7 0 0 0 14.841-26.3 97.081 97.081 0 0 0 6.173-29.863 51.027 51.027 0 0 0-2.017-16.919 22.391 22.391 0 0 0-8.736-12.017 8.469 8.469 0 1 0-8.824 14.459ZM1198.428 1122.886a35.008 35.008 0 0 0-21.239-5.871c-9.689.485-19.534 4.364-27.716 9.585a137.274 137.274 0 0 0-35.361 32.651c-10.087 13.317-17.629 28.331-19.309 43.587-1.385 10.875-.121 21.741 2.407 32.443 3.724 15.689 10.365 31.041 17.352 44.981 3.031 6.251 8.52 14.07 11.611 22.027 1.836 4.727 2.788 9.472 1.316 13.853-4.589 13.386-16.46 21.811-28.928 29.915-13.81 8.97-28.244 17.577-37.188 29.88a48.5 48.5 0 0 0-9.178 25.093 8.47 8.47 0 1 0 16.927.675c-.034-10.5 4.3-18.512 10.659-25.4 18.044-19.55 48.556-31.984 55.336-57.847a24.9 24.9 0 0 0-.866-14.624c-3.186-9.412-10.667-18.815-14.727-26.149-7.17-13.4-14.478-28.088-18.088-43.4a79.642 79.642 0 0 1-1.446-30.712c2.424-14.009 10.121-27.594 20.382-39.179a121.713 121.713 0 0 1 35.162-27.075 48.785 48.785 0 0 1 18.157-5.308 20.385 20.385 0 0 1 14.71 4.537 8.47 8.47 0 1 0 10.027-13.654Z"></path>
    </g>
    <path fill-opacity=".2" d="M1423.071 985.476c-113.322 118.084-242.133 49.708-291.244 124.284-21.854 33.2 11.438 110.144 51.111 107.719 63.172-3.853 287.919-92.195 327.939-130.863 32.114-31.024-63.692-126.275-87.806-101.14Z"></path>
  </g>
  <path fill="#69bac9" fill-rule="evenodd" d="M1521.289 1000.35c-71.82 188.922 24.813 276.008 41.235 298.429 58.849 80.316 156.927 114.518 95.722 185.489-38.389 44.511-142.265 60.3-192.486 19.829-50.5-40.692-99.191-172.4-110.515-263.973s16.448-191.138 42.566-285.467c19.989-72.188 165.449-64.709 123.478 45.693Z"></path>
  <g fill="#fff" fill-rule="evenodd" clip-path="url(#e)">
    <path d="M1557.586 912.327c-10.278 3.264-20.365 10.329-29.6 19.152-12.347 11.784-23.326 26.478-31.725 36.989-28.9 35.838-59.015 84.879-72.072 135.34-8.893 34.348-10.019 69.372 2.969 101.572 2.676 6.745 6.892 13.932 12.737 17.854a17.611 17.611 0 0 0 15.1 2.451c5.836-1.576 15.672-8.226 23.915-10.131 4.875-1.126 9.091-.277 10.736 5.819 11.559 44.08.667 93.892 8.3 139.184 3.359 19.949 10.226 39.041 23.854 56.514 8.269 10.606 18.849 17.152 30.6 21.654 24.858 9.525 55.405 8.962 78.722 20.651 10.832 5.437 18.772 13.351 25.292 22.443 10.528 14.667 17.351 32.373 25.56 48.755a8.468 8.468 0 1 0 14.987-7.888c-9.23-16.728-17.213-34.807-28.763-49.673-8.217-10.572-18.114-19.637-31.318-25.664-24.191-11.048-55.276-9.515-80.939-18.356-10.234-3.523-19.559-8.8-26.963-17.706-13.2-15.9-20.122-33.534-23.741-52.055-8.8-45.1 1.186-95.191-11.308-139.028-1.931-6.988-6.1-9.395-11.169-9.472-9.022-.13-21.854 8.848-28.9 10.753a13.418 13.418 0 0 1-11.481-1.913c-5.109-3.49-8.607-9.94-10.884-15.889-11.81-31.334-10.173-65.163-.563-98.013 14.244-48.687 45.821-95.087 75.312-128.821 8.537-9.68 19.689-23.3 32.062-34.01 7.645-6.615 15.749-12.07 24-14.252a8.467 8.467 0 0 0-4.727-16.26ZM1377.23 1344.539c-.4-7.62 1.948-16.52 5.957-24.651 4.2-8.537 9.948-16.321 16.174-21.048a24.381 24.381 0 0 1 11.551-5.066 13.731 13.731 0 0 1 10.987 3.031 26.757 26.757 0 0 1 7.108 11.039c2.641 7.066 3.732 15.075 4.823 21.6 1.55 9.818 2.537 19.853 3.421 29.923.883 10.139 1.757 20.287 3.272 30.279a150.031 150.031 0 0 0 5.888 25.7 64.755 64.755 0 0 0 18.33 28.339c18.018 16.607 43.621 23.161 61.986 42.5a49.821 49.821 0 0 1 11.074 19.846c3.559 11.481 3.931 24.1 3.74 35.993a8.471 8.471 0 0 0 16.936-.416c-.891-13.429-2.658-27.56-7.706-40.175-3.524-8.823-8.476-16.971-15.793-23.629-20-18.416-46.556-23.3-65.864-39.145a58.242 58.242 0 0 1-17.889-25.023 144.533 144.533 0 0 1-7.576-33.153c-2.017-17.239-1.948-34.85-4-51.829-.736-6.962-1.49-15.464-3.775-23.118a35.03 35.03 0 0 0-8.234-14.841c-4.892-4.97-11.118-6.719-17.447-6.52a35.2 35.2 0 0 0-17.1 5.568c-8.035 5-15.9 13.654-21.984 23.429-6.277 10.07-10.286 21.395-10.814 31.37a8.468 8.468 0 1 0 16.936 0Z"></path>
    <path d="M1574.34 1260.907c-5.845 3.715-10.217 9.853-12.477 17.845-3.8 13.438-2.875 31.352-1.464 40.738a136.945 136.945 0 0 0 2.6 14.113 84.084 84.084 0 0 0 4.468 13.741c4.312 10.572 10.182 17.819 16.927 23.092a56 56 0 0 0 17.014 8.91c30.486 10.217 73.908-1.8 101.079 19.36a8.468 8.468 0 0 0 9.654-13.914c-10.408-6.243-21.976-8.988-34.279-9.749-25.006-1.542-52.765 5.273-75.052-.468a41.965 41.965 0 0 1-15.767-7.515c-6.112-4.814-10.935-11.906-14.425-21.681a72.451 72.451 0 0 1-2.943-13.04 112.551 112.551 0 0 1-.918-13.481c-.018-7.273.849-20.148 4.468-30.781 1.9-5.567 4.615-10.347 8.926-12.13a8.473 8.473 0 0 0-7.809-15.04Z"></path>
  </g>
  <path fill="#d6aeae" fill-rule="evenodd" d="M1488.163 729.246c-46.761-10.984-91.18 110.888-138.1 112.8s-122.437-79.423-143.413-101.337c-8.858-9.269-22.593-18.206-29.02-20.174-16.538-5.074-43.99-6.655-45.891 2.25-1.258 5.9 27.263 1.467 25.725 10.267-3.906 22.357 7.418 28.051 28.873 29.458 22.257 47.264 118.546 154.751 172.841 161.591s139.32-87.914 152.891-120.543c14.762-35.458 1.431-68.367-23.906-74.312Z"></path>
  <g fill-rule="evenodd" clip-path="url(#f)">
    <path fill="#1a2283" d="M1494.2 849.446c-16.1 2.709-28.293-16.754-43.057-23.948-31.487-15.337-39.281 31.007-73.893-22.586-10.457-16.207 8.556-77.509 30.828-95.083s79.56-27.3 102.827-10.392 39.582 86.489 36.793 111.825c-2.431 22.172-37.404 37.484-53.498 40.184Z"></path>
    <path fill-opacity=".2" d="M1472.423 778.047c-12.113 9.617-21.225 69.4-49.49 87.3-34.547 21.872-139.25 24.831-157.792 43.963s18.268 70.2 46.509 70.848c36.956.839 144.533-37.072 175.194-65.832 26.03-24.414 11.166-84 8.755-106.721-1.315-12.445-13.372-37.354-23.176-29.558Z"></path>
  </g>
  <path fill="#1a2283" fill-rule="evenodd" d="M1542.226 955.311c6.882 39.451-151.079 62.565-179.245 25.127-43.861-58.277 85.33-88.92 92.706-225.154 2.637-48.67 135.311-44.786 102.942 10.414-18.18 31.014-36.174 76.374-16.403 189.613Z"></path>
  <g clip-path="url(#g)">
    <path fill-opacity=".2" fill-rule="evenodd" d="M1523.489 803.528c-16.6-6.6 14.557 75.157-8.873 98.209-28.473 28.019-158.109 46.324-161.971 69.911s95.2 76.663 138.788 71.61 117.417-62.011 122.759-101.968-74.106-131.167-90.703-137.762Z"></path>
  </g>
  <path fill="#737ce3" fill-rule="evenodd" d="M1513.628 1113.773c24.945 21.347 59.476 21.926 77.132 1.293l.011-.012c17.653-20.629 11.748-54.659-13.2-76.006l-469.25-401.563a98.215 98.215 0 0 0-32.48-18.446c-21.075-7.106-56.4-19.022-82.583-27.851a13.28 13.28 0 0 0-15.7 19.3c14.152 24.146 33.231 56.709 44.02 75.116a98.173 98.173 0 0 0 20.884 24.97Z"></path>
  <g clip-path="url(#h)">
    <path fill-opacity=".2" fill-rule="evenodd" d="M982.592 635.263c91.9 87.355 143.064 131.513 250.81 194.287 161.394 94.022 224.973 224.774 284.024 255.754 29.248 15.342 117.789 24.685 70.255-69.9-15.525-30.9 145.756 128.716 117.019 159.142s-202.15 65.259-289.427 23.413c-121.5-58.254-367.422-279.131-439.53-372.911-38.591-50.185-19.066-214.418 6.849-189.785Z"></path>
  </g>
  <path fill="#fff" fill-rule="evenodd" d="M1528.683 1083.18a16.114 16.114 0 0 0 22.715-1.761l10.456-12.218c.007-.008 0-.02.008-.028a.127.127 0 0 0-.022-.033l-121.824-104.25a3.958 3.958 0 0 0-5.581.432l-7.907 9.24a16.115 16.115 0 0 0 1.771 22.715Z"></path>
  <path fill="#d6aeae" fill-rule="evenodd" d="M1528.7 737.1c-38.714 28.434 25.14 141.344-3.865 178.27s-142.386 31.13-170.183 43.28c-4.411 1.925-18.231-23.43-24.424-26.059-9.053-3.856-8.808 8.6-2.838 20.38 2.724 5.383-23.636-23.125-25.09-17.551-3.491 13.364 15.693 47.417 55.745 52.834 78.771 10.641 194.667 10.309 235.12-26.546s23.588-163.042 7.583-194.548c-17.386-34.246-51.071-45.477-72.048-30.06Z"></path>
  <g clip-path="url(#i)">
    <path fill="#1a2283" fill-rule="evenodd" d="M1624.046 810.543c-8.392 14-31.112 10.641-46.17 17.2-32.107 13.99-1.92 50.007-65.153 41.537-19.116-2.569-53.4-56.831-52.3-85.179s30.889-78.238 58.857-84.956 91.48 26.048 108.94 44.619c15.28 16.245 4.22 52.787-4.174 66.779Z"></path>
  </g>
  <path fill="#d6aeae" fill-rule="evenodd" d="M1562.434 665.82c-1.32 13.548-10.7 47.721-31.576 49.1-21.446 1.416-27.35-33.742-26.021-47.292s24.377-33.712 33.98-34.017 24.919 18.957 23.617 32.209Z"></path>
  <path fill-rule="evenodd" d="M1508.223 694.118c1.385-1.143 7.42 6.918 10.935 7.108s6.693-6.329 10.157-5.965 6.563 9.619 10.6 8.1 11.611-10.719 13.637-17.2.649-17.8-1.516-21.646c-1.9-3.359-7.879-2.779-11.5-1.429-11.836 4.442-28.14 3.161-34.573-1.394s-12.65-10.442-4-25.958c2.987-5.342 20.078-18.936 23.836-8.355 7.551 21.308 9.178-11.022 34.045 13.308 5.983 5.844 4.373 17.3 3.888 25.776s-2.442 17.611-6.823 25.084c-4.866 8.321-6.451 14.3-22.408 24.858-6.8 4.494-36.885 8.468-23.629-8.338 2.277-2.875-4.026-12.815-2.649-13.949Z"></path>
</svg>
